<?xml version="1.0" encoding="utf-8"?>
<!-- Generator: Adobe Illustrator 16.0.0, SVG Export Plug-In . SVG Version: 6.00 Build 0)  -->
<!DOCTYPE svg PUBLIC "-//W3C//DTD SVG 1.1//EN" "http://www.w3.org/Graphics/SVG/1.1/DTD/svg11.dtd">
<svg version="1.1" id="Layer_1" xmlns="http://www.w3.org/2000/svg" xmlns:xlink="http://www.w3.org/1999/xlink" x="0px" y="0px"
	 width="904px" height="208px" viewBox="0 98 904 208" enable-background="new 0 98 904 208" xml:space="preserve">
<g id="Layer_3" display="none">
	<g display="inline">
		<g>
			<circle fill="#22212B" cx="200" cy="200.687" r="189.589"/>
		</g>
	</g>
</g>
<g id="Layer_2">
	<g>
		<path fill="#FFFFFF" d="M114.702,102.981l-52.889,65.147l-37.208-30.206c-6.608,7.955-12.001,16.958-15.889,26.723l79.912,64.875
			L44.945,283.33c14.555,9.977,31.898,16.18,50.622,17.191l-0.954-0.782l51.577-62.79l-62.789-51.577l0.036-0.043l-0.043-0.036
			l60.439-73.577C134.795,107.392,125,104.4,114.702,102.981z"/>
		<path fill="#FFFFFF" d="M165.619,125.917l-45.882,55.855l62.789,51.576l-0.034,0.043l0.042,0.036l-51.426,62.604
			c40.146-12.746,69.235-50.311,69.235-94.673C200.344,171.17,186.873,144.133,165.619,125.917z"/>
	</g>
</g>
<g>
	<path fill="#FFFFFF" d="M231.429,161.189c4.736-1.048,13.369-1.833,21.753-1.833c11.06,0,17.864,1.439,23.456,5.628
		c5.104,3.274,8.508,9.032,8.508,16.494c0,8.116-4.739,15.576-13.611,19.111v0.262c8.627,2.355,16.526,9.686,16.526,21.861
		c0,7.854-3.156,14.005-7.899,18.192c-5.833,5.5-15.437,8.246-30.384,8.246c-8.263,0-14.584-0.653-18.352-1.177v-86.786H231.429z
		 M246.256,196.009h7.655c10.332,0,16.166-5.236,16.166-12.697c0-8.248-5.833-12.042-15.312-12.042
		c-4.376,0-6.928,0.261-8.507,0.653L246.256,196.009L246.256,196.009z M246.256,236.586c1.943,0.264,4.495,0.393,7.898,0.393
		c9.602,0,18.109-3.925,18.109-14.79c0-10.211-8.265-14.398-18.593-14.398h-7.414L246.256,236.586L246.256,236.586z"/>
	<path fill="#FFFFFF" d="M374.113,203.208c0,29.583-16.65,46.469-39.254,46.469c-23.093,0-37.676-18.979-37.676-44.899
		c0-27.096,15.799-46.208,38.889-46.208C360.017,158.571,374.113,178.075,374.113,203.208z M312.981,204.517
		c0,17.934,8.385,32.202,22.727,32.202c14.464,0,22.607-14.397,22.607-32.856c0-16.624-7.657-32.332-22.607-32.332
		C320.882,171.53,312.981,186.323,312.981,204.517z"/>
	<path fill="#FFFFFF" d="M387.004,161.189c6.562-1.179,14.946-1.833,23.82-1.833c15.314,0,25.887,3.404,33.424,10.21
		c7.899,6.938,12.76,17.41,12.76,32.464c0,15.709-4.982,27.486-12.76,35.081c-8.144,7.983-21.147,12.041-37.069,12.041
		c-8.752,0-15.315-0.521-20.175-1.177V161.189L387.004,161.189z M401.949,235.935c2.069,0.392,5.228,0.392,8.268,0.392
		c19.444,0.129,30.991-11.387,30.991-33.772c0.123-19.505-10.33-30.632-29.045-30.632c-4.743,0-8.144,0.394-10.212,0.917
		L401.949,235.935L401.949,235.935z"/>
	<path fill="#FFFFFF" d="M484.602,248.237v-36.782l-25.887-51.445h17.017l9.845,22.647c2.794,6.545,4.858,11.519,7.047,17.54h0.244
		c2.067-5.628,4.376-11.126,7.171-17.54l9.844-22.647h16.895l-27.225,51.052v37.175H484.602z"/>
	<path fill="#FFFFFF" d="M532.86,230.699c4.862,3.007,12.154,5.629,19.811,5.629c9.603,0,14.949-4.845,14.949-12.044
		c0-6.677-4.132-10.603-14.586-14.661c-13.487-5.235-22.118-12.96-22.118-25.658c0-14.399,11.183-25.395,28.927-25.395
		c8.871,0,15.434,2.094,19.687,4.451l-3.646,12.959c-2.918-1.702-8.629-4.19-16.284-4.19c-9.479,0-13.614,5.497-13.614,10.603
		c0,6.807,4.741,9.949,15.679,14.53c14.219,5.759,21.146,13.483,21.146,26.179c0,14.137-9.965,26.441-31.112,26.441
		c-8.63,0-17.624-2.618-22.12-5.498L532.86,230.699z"/>
	<path fill="#FFFFFF" d="M611.256,160.01v35.345h34.639V160.01h14.949v88.227h-14.949v-38.878h-34.639v38.878h-14.948V160.01
		H611.256z"/>
	<path fill="#FFFFFF" d="M750.663,203.208c0,29.583-16.652,46.469-39.256,46.469c-23.093,0-37.676-18.979-37.676-44.899
		c0-27.096,15.8-46.208,38.892-46.208C736.567,158.571,750.663,178.075,750.663,203.208z M689.531,204.517
		c0,17.934,8.386,32.202,22.727,32.202c14.464,0,22.605-14.397,22.605-32.856c0-16.624-7.656-32.332-22.605-32.332
		C697.43,171.53,689.531,186.323,689.531,204.517z"/>
	<path fill="#FFFFFF" d="M822.252,245.62c-3.524,1.962-11.303,3.927-21.146,3.927c-26.012,0-41.809-17.539-41.809-44.374
		c0-29.06,18.717-46.601,43.754-46.601c9.843,0,16.894,2.225,19.932,3.928l-3.282,12.827c-3.889-1.831-9.235-3.404-16.041-3.404
		c-16.65,0-28.684,11.258-28.684,32.465c0,19.373,10.574,31.809,28.562,31.809c6.076,0,12.397-1.308,16.286-3.272L822.252,245.62z"
		/>
	<path fill="#FFFFFF" d="M835.019,160.01h14.826v40.579h0.364c1.944-3.402,4.012-6.545,5.958-9.556l21.388-31.024h18.473
		l-28.195,37.569l30.021,50.659h-17.502l-23.213-40.447l-7.293,9.423v31.024H835.02L835.019,160.01L835.019,160.01z"/>
</g>
</svg>
